<svg xmlns="http://www.w3.org/2000/svg" width="213" height="129.201"><g fill="#fff"><path d="M91.295 29.511v.412h.045v-.412Zm0 10.395v.19h.045v-.19ZM87.211 9.173h4.084v-.012q-2.041.004-4.084.012Zm8.071-.027v.027h8.409v-.054Zm12.4 13.052v.012h.009v-.012Zm36.015-13.212v.129h.033v-.129Z"/><path d="M142.051 13.103v-1.95h1.679V9.12h-.036v-.129l-36.018.12V0h-3.982v9.173h-8.409V0h-3.991v9.173h.045-.045q-6.194.018-12.39.039c-1.15.018-10.515.3-15.71 7a13.992 13.992 0 0 0-3.034 8.634 14.723 14.723 0 0 0 6.148 11.439c4.06 2.982 8.691 3.232 17.735 3.723 2.9.157 5.378.141 7.25.084v-.19h.045v7.683h-15.99a141.01 141.01 0 0 0-11.806 13.338q13.877.045 27.757.084h.042v.012h-.047V81.69h.364v.2l15.887-12.625.054-.042.033-.024.039-.033.012-.009v-8.2a39.733 39.733 0 0 0 7.093-.6c3.753-.662 7.966-1.411 11.063-3.948 6.058-4.969 4.972-14.464 4.785-15.9l-15.123-.045a6.25 6.25 0 0 1-2.375 6.139 6.643 6.643 0 0 1-5.444 1.174v-.307h-.009V22.198h.009v.012l29.836.114v-2.429h.7v-1.818h-1.752v-1.95h1.893v-1.866h2.1v1.866h1.58v-1.866h1.833v-1.159ZM91.294 29.92v-.412h-11.2a3.962 3.962 0 0 1-2.865-3.235 3.9 3.9 0 0 1 2.865-3.945h11.247v7.592Zm.141 39.292h-.1v-.06h.1Z"/><path d="M91.34 69.156h.096v.06h-.096zM108.591 29.31l29.4.111-5.495 9.9h-23.905Z"/><path d="M91.34 69.156h.096v.06h-.096zM107.691 22.198v25.26h-.009v-25.26ZM144.34 10.665h1.95v1.95h-1.95zM142.799 15.307h1.95v1.95h-1.95zM146.29 12.615h1.95v1.95h-1.95zM141.049 20.901h1.95v1.95h-1.95zM150.889 12.149h1.95v1.95h-1.95z"/><path d="M144.649 17.157h1.95v1.95h-1.95zM143.035 22.768h1.95v1.95h-1.95zM148.24 10.521h1.95v1.95h-1.95zM148.939 14.177h1.95v1.95h-1.95z"/><path d="M142.941 19.018h1.95v1.95h-1.95zM143.697 7.165h1.95v1.95h-1.95zM145.541 5.204h1.95v1.95h-1.95zM91.295 9.173h.045v.003h-.045zM91.295 39.906h.045v7.683h-.045z"/><path d="M86.101 47.583h5.24v.006h-5.24zM91.295 22.331h.045v7.593h-.045z"/><path d="M91.34 29.508v.415h-.045v-.412h-5.167ZM107.748 69.101l-.057.048M91.34 69.156h.096v.06h-.096z"/><path d="M91.298 81.69V61.024v21.178l.2-.184.166-.132v-.2Z"/></g><text transform="translate(0 118.201)" fill="#fff" font-size="28" font-family="Poppins-Bold, Poppins" font-weight="700">
          <tspan x="0" y="0">
            SUPER FUTURE
          </tspan>
        </text></svg>